<svg width="489.576" height="489.576" xmlns="http://www.w3.org/2000/svg">

 <g>
  <title>background</title>
  <rect fill="none" id="canvas_background" height="402" width="582" y="-1" x="-1"/>
 </g>
 <g>
  <title>Layer 1</title>
  <g id="XMLID_312_">
   <path fill="#ffffff" d="m329.973,253.208c-22.181,-34.606 -60.458,-55.538 -101.556,-55.538c-41.093,0 -79.37,20.931 -101.55,55.538l-61.063,95.255c-16.723,26.092 -14.388,60.059 5.737,83.614c20.151,23.556 53.343,31.143 81.728,18.668l0.019,-0.017c47.878,-21.044 102.388,-21.044 150.28,0.017c28.368,12.475 61.56,4.897 81.713,-18.659c20.142,-23.555 22.477,-57.531 5.754,-83.623l-61.062,-95.255z" id="XMLID_317_"/>
   <path fill="#ffffff" d="m77.688,244.023c28.07,-10.786 40.537,-46.255 27.859,-79.189c-12.686,-32.927 -45.717,-50.89 -73.756,-40.087c-28.048,10.785 -40.497,46.247 -27.842,79.188c12.692,32.917 45.725,50.889 73.739,40.088z" id="XMLID_316_"/>
   <path fill="#ffffff" d="m187.936,185.381c36.563,0 66.215,-34.815 66.215,-77.741c0,-42.944 -29.652,-77.758 -66.215,-77.758c-36.553,0 -66.206,34.813 -66.206,77.758c0,42.926 29.653,77.741 66.206,77.741z" id="XMLID_315_"/>
   <path fill="#ffffff" d="m311.391,208.488c34.697,11.53 73.822,-12.162 87.363,-52.898c13.55,-40.742 -3.621,-83.134 -38.297,-94.663c-34.699,-11.529 -73.823,12.162 -87.354,52.905c-13.542,40.743 3.612,83.127 38.288,94.656z" id="XMLID_314_"/>
   <path fill="#ffffff" d="m468.653,196.798c-24.182,-17.866 -60.784,-9.377 -81.789,18.996c-20.98,28.381 -18.406,65.876 5.729,83.742c24.128,17.876 60.773,9.379 81.79,-18.988c20.979,-28.38 18.398,-65.882 -5.73,-83.75z" id="XMLID_313_"/>
  </g>
  <g id="svg_1"/>
  <g id="svg_2"/>
  <g id="svg_3"/>
  <g id="svg_4"/>
  <g id="svg_5"/>
  <g id="svg_6"/>
  <g id="svg_7"/>
  <g id="svg_8"/>
  <g id="svg_9"/>
  <g id="svg_10"/>
  <g id="svg_11"/>
  <g id="svg_12"/>
  <g id="svg_13"/>
  <g id="svg_14"/>
  <g id="svg_15"/>
 </g>
</svg>